STARTFONT 2.1
FONT -Fondu-ET Bembo Roman OSF-Medium-R-Normal--13-120-75-75-P-70-MacRoman-1
SIZE 12 75 75
FONTBOUNDINGBOX 16 16 -2 -4
COMMENT Created by Fondu from a mac NFNT/FONT resource
STARTPROPERTIES 17
FOUNDRY "Fondu"
FAMILY_NAME "ET Bembo Roman OSF"
WEIGHT_NAME "Medium"
SLANT "R"
SETWIDTH_NAME "Normal"
ADD_STYLE_NAME ""
PIXEL_SIZE 13
POINT_SIZE 120
RESOLUTION_X 75
RESOLUTION_Y 75
SPACING "P"
AVERAGE_WIDTH 70
CHARSET_REGISTRY "MacRoman"
CHARSET_ENCODING "1"
FONT_ASCENT 12
FONT_DESCENT 4
FACE_NAME "ET Bembo Roman OSF"
ENDPROPERTIES
CHARS 206
STARTCHAR space
ENCODING 32
SWIDTH 245 0
DWIDTH 3 0
BBX 0 0 0 -4
BITMAP
ENDCHAR
STARTCHAR exclam
ENCODING 33
SWIDTH 272 0
DWIDTH 4 0
BBX 3 9 0 0
BITMAP
40
40
40
40
40
40
40
00
40
ENDCHAR
STARTCHAR quotedbl
ENCODING 34
SWIDTH 425 0
DWIDTH 6 0
BBX 5 4 0 4
BITMAP
50
50
50
50
ENDCHAR
STARTCHAR numbersign
ENCODING 35
SWIDTH 699 0
DWIDTH 9 0
BBX 9 11 0 -1
BITMAP
1100
1100
1200
7F80
2200
2200
2200
7F80
2400
4400
4400
ENDCHAR
STARTCHAR dollar
ENCODING 36
SWIDTH 479 0
DWIDTH 6 0
BBX 6 10 0 -2
BITMAP
30
7C
70
70
38
3C
74
78
30
30
ENDCHAR
STARTCHAR percent
ENCODING 37
SWIDTH 696 0
DWIDTH 9 0
BBX 8 9 0 -1
BITMAP
62
94
98
68
12
15
25
25
42
ENDCHAR
STARTCHAR ampersand
ENCODING 38
SWIDTH 763 0
DWIDTH 10 0
BBX 11 8 0 0
BITMAP
3C00
2400
2440
3880
4500
4200
4700
3980
ENDCHAR
STARTCHAR quotesingle
ENCODING 39
SWIDTH 185 0
DWIDTH 4 0
BBX 2 3 1 6
BITMAP
80
80
80
ENDCHAR
STARTCHAR parenleft
ENCODING 40
SWIDTH 326 0
DWIDTH 4 0
BBX 4 12 1 -3
BITMAP
20
40
40
80
80
80
80
80
80
40
40
20
ENDCHAR
STARTCHAR parenright
ENCODING 41
SWIDTH 316 0
DWIDTH 4 0
BBX 4 12 -1 -3
BITMAP
40
20
20
10
10
10
10
10
10
20
20
40
ENDCHAR
STARTCHAR asterisk
ENCODING 42
SWIDTH 534 0
DWIDTH 7 0
BBX 7 6 0 2
BITMAP
10
54
38
38
54
10
ENDCHAR
STARTCHAR plus
ENCODING 43
SWIDTH 698 0
DWIDTH 9 0
BBX 9 8 0 1
BITMAP
0800
0800
0800
0800
7F00
0800
0800
0800
ENDCHAR
STARTCHAR comma
ENCODING 44
SWIDTH 251 0
DWIDTH 3 0
BBX 2 2 0 0
BITMAP
40
40
ENDCHAR
STARTCHAR hyphen
ENCODING 45
SWIDTH 435 0
DWIDTH 6 0
BBX 6 1 0 3
BITMAP
78
ENDCHAR
STARTCHAR period
ENCODING 46
SWIDTH 204 0
DWIDTH 3 0
BBX 2 1 0 0
BITMAP
40
ENDCHAR
STARTCHAR slash
ENCODING 47
SWIDTH 479 0
DWIDTH 6 0
BBX 6 9 0 0
BITMAP
04
08
08
10
10
20
20
40
40
ENDCHAR
STARTCHAR zero
ENCODING 48
SWIDTH 489 0
DWIDTH 6 0
BBX 6 6 0 0
BITMAP
78
CC
84
84
84
78
ENDCHAR
STARTCHAR one
ENCODING 49
SWIDTH 386 0
DWIDTH 5 0
BBX 5 6 0 0
BITMAP
20
60
20
20
20
70
ENDCHAR
STARTCHAR two
ENCODING 50
SWIDTH 489 0
DWIDTH 6 0
BBX 6 6 0 0
BITMAP
38
08
08
10
24
7C
ENDCHAR
STARTCHAR three
ENCODING 51
SWIDTH 436 0
DWIDTH 6 0
BBX 4 9 0 -3
BITMAP
70
10
10
20
70
10
10
10
60
ENDCHAR
STARTCHAR four
ENCODING 52
SWIDTH 489 0
DWIDTH 6 0
BBX 6 8 0 -3
BITMAP
10
30
50
90
FC
10
10
10
ENDCHAR
STARTCHAR five
ENCODING 53
SWIDTH 449 0
DWIDTH 6 0
BBX 5 8 0 -2
BITMAP
18
20
20
10
08
08
08
70
ENDCHAR
STARTCHAR six
ENCODING 54
SWIDTH 502 0
DWIDTH 7 0
BBX 6 8 0 0
BITMAP
04
18
20
78
4C
44
44
28
ENDCHAR
STARTCHAR seven
ENCODING 55
SWIDTH 489 0
DWIDTH 6 0
BBX 6 8 0 -2
BITMAP
7C
08
08
10
10
10
20
20
ENDCHAR
STARTCHAR eight
ENCODING 56
SWIDTH 464 0
DWIDTH 6 0
BBX 4 8 1 0
BITMAP
60
90
90
60
70
90
90
60
ENDCHAR
STARTCHAR nine
ENCODING 57
SWIDTH 510 0
DWIDTH 7 0
BBX 6 8 0 -2
BITMAP
38
4C
44
44
44
3C
08
30
ENDCHAR
STARTCHAR colon
ENCODING 58
SWIDTH 257 0
DWIDTH 3 0
BBX 2 5 1 0
BITMAP
80
00
00
00
80
ENDCHAR
STARTCHAR semicolon
ENCODING 59
SWIDTH 230 0
DWIDTH 3 0
BBX 2 6 0 -1
BITMAP
40
00
00
00
40
40
ENDCHAR
STARTCHAR less
ENCODING 60
SWIDTH 698 0
DWIDTH 9 0
BBX 9 7 0 1
BITMAP
0100
0600
1800
6000
3000
0E00
0100
ENDCHAR
STARTCHAR equal
ENCODING 61
SWIDTH 698 0
DWIDTH 9 0
BBX 9 4 0 2
BITMAP
7F00
0000
0000
7F00
ENDCHAR
STARTCHAR greater
ENCODING 62
SWIDTH 698 0
DWIDTH 9 0
BBX 9 7 0 1
BITMAP
4000
3000
0C00
0300
0600
3800
4000
ENDCHAR
STARTCHAR question
ENCODING 63
SWIDTH 362 0
DWIDTH 5 0
BBX 4 8 0 0
BITMAP
E0
10
10
30
60
40
20
40
ENDCHAR
STARTCHAR at
ENCODING 64
SWIDTH 960 0
DWIDTH 12 0
BBX 10 11 1 -2
BITMAP
1F00
3080
4740
C940
9A40
9240
9280
9F40
4080
6180
1E00
ENDCHAR
STARTCHAR A
ENCODING 65
SWIDTH 711 0
DWIDTH 9 0
BBX 10 8 0 0
BITMAP
0800
1400
1400
1C00
2200
2200
4300
4300
ENDCHAR
STARTCHAR B
ENCODING 66
SWIDTH 656 0
DWIDTH 9 0
BBX 8 8 0 0
BITMAP
7C
22
22
3C
23
21
21
FE
ENDCHAR
STARTCHAR C
ENCODING 67
SWIDTH 762 0
DWIDTH 10 0
BBX 9 8 0 0
BITMAP
1F00
2080
4000
4000
4000
4000
2080
1F00
ENDCHAR
STARTCHAR D
ENCODING 68
SWIDTH 773 0
DWIDTH 10 0
BBX 10 8 0 0
BITMAP
7E00
2100
2080
2080
2080
2080
2100
6600
ENDCHAR
STARTCHAR E
ENCODING 69
SWIDTH 619 0
DWIDTH 8 0
BBX 8 8 0 0
BITMAP
7E
20
20
3C
20
20
20
7E
ENDCHAR
STARTCHAR F
ENCODING 70
SWIDTH 543 0
DWIDTH 7 0
BBX 7 8 0 0
BITMAP
7E
20
22
3E
22
20
20
60
ENDCHAR
STARTCHAR G
ENCODING 71
SWIDTH 763 0
DWIDTH 10 0
BBX 10 8 0 0
BITMAP
1F00
2100
4000
4000
4780
4100
2100
1E00
ENDCHAR
STARTCHAR H
ENCODING 72
SWIDTH 788 0
DWIDTH 10 0
BBX 11 8 0 0
BITMAP
6180
2080
2080
3F80
2080
2080
2080
71C0
ENDCHAR
STARTCHAR I
ENCODING 73
SWIDTH 363 0
DWIDTH 5 0
BBX 5 8 0 0
BITMAP
30
20
20
20
20
20
20
70
ENDCHAR
STARTCHAR J
ENCODING 74
SWIDTH 324 0
DWIDTH 4 0
BBX 6 12 -1 -4
BITMAP
38
10
10
10
10
10
10
10
10
10
20
E0
ENDCHAR
STARTCHAR K
ENCODING 75
SWIDTH 740 0
DWIDTH 10 0
BBX 10 8 0 0
BITMAP
6200
2400
2400
2800
3800
2400
2200
7380
ENDCHAR
STARTCHAR L
ENCODING 76
SWIDTH 595 0
DWIDTH 8 0
BBX 8 8 0 0
BITMAP
70
20
20
20
20
20
20
7E
ENDCHAR
STARTCHAR M
ENCODING 77
SWIDTH 942 0
DWIDTH 12 0
BBX 12 8 0 0
BITMAP
30C0
30C0
3940
2940
2940
2640
2640
6060
ENDCHAR
STARTCHAR N
ENCODING 78
SWIDTH 834 0
DWIDTH 11 0
BBX 11 8 0 0
BITMAP
30C0
3080
2880
2480
2280
2280
2180
7080
ENDCHAR
STARTCHAR O
ENCODING 79
SWIDTH 827 0
DWIDTH 11 0
BBX 10 8 0 0
BITMAP
1F00
2080
40C0
4040
4040
4040
2080
1F00
ENDCHAR
STARTCHAR P
ENCODING 80
SWIDTH 577 0
DWIDTH 8 0
BBX 7 8 0 0
BITMAP
7C
22
22
26
3C
20
20
78
ENDCHAR
STARTCHAR Q
ENCODING 81
SWIDTH 822 0
DWIDTH 11 0
BBX 11 11 0 -3
BITMAP
1F00
2080
40C0
4040
4040
4040
2080
1100
0F00
0180
00E0
ENDCHAR
STARTCHAR R
ENCODING 82
SWIDTH 696 0
DWIDTH 9 0
BBX 9 8 0 0
BITMAP
7C00
2200
2200
2600
3C00
2600
2200
7100
ENDCHAR
STARTCHAR S
ENCODING 83
SWIDTH 513 0
DWIDTH 7 0
BBX 6 8 0 0
BITMAP
78
40
60
30
18
04
04
78
ENDCHAR
STARTCHAR T
ENCODING 84
SWIDTH 681 0
DWIDTH 9 0
BBX 9 8 0 0
BITMAP
7F00
0900
0800
0800
0800
0800
0800
3C00
ENDCHAR
STARTCHAR U
ENCODING 85
SWIDTH 815 0
DWIDTH 11 0
BBX 11 8 0 0
BITMAP
60C0
2080
2080
2080
2080
2080
3180
1E00
ENDCHAR
STARTCHAR V
ENCODING 86
SWIDTH 761 0
DWIDTH 10 0
BBX 10 8 0 0
BITMAP
61C0
2100
3100
1200
1200
0C00
0C00
0C00
ENDCHAR
STARTCHAR W
ENCODING 87
SWIDTH 1086 0
DWIDTH 14 0
BBX 14 9 0 -1
BITMAP
6788
2310
3310
1110
1320
0AA0
0CC0
0CC0
0440
ENDCHAR
STARTCHAR X
ENCODING 88
SWIDTH 785 0
DWIDTH 10 0
BBX 10 8 0 0
BITMAP
6180
1200
1C00
0C00
0C00
1200
2300
6180
ENDCHAR
STARTCHAR Y
ENCODING 89
SWIDTH 728 0
DWIDTH 9 0
BBX 10 8 0 0
BITMAP
3180
1100
1A00
0A00
0400
0400
0400
0E00
ENDCHAR
STARTCHAR Z
ENCODING 90
SWIDTH 705 0
DWIDTH 9 0
BBX 9 8 0 0
BITMAP
7F00
4200
0400
0800
1800
3000
6000
7F00
ENDCHAR
STARTCHAR bracketleft
ENCODING 91
SWIDTH 337 0
DWIDTH 4 0
BBX 3 12 1 -4
BITMAP
80
80
80
80
80
80
80
80
80
80
80
C0
ENDCHAR
STARTCHAR backslash
ENCODING 92
SWIDTH 479 0
DWIDTH 6 0
BBX 6 10 0 -1
BITMAP
40
40
20
20
10
10
10
08
08
04
ENDCHAR
STARTCHAR bracketright
ENCODING 93
SWIDTH 343 0
DWIDTH 4 0
BBX 3 12 0 -4
BITMAP
40
40
40
40
40
40
40
40
40
40
40
C0
ENDCHAR
STARTCHAR asciicircum
ENCODING 94
SWIDTH 491 0
DWIDTH 6 0
BBX 7 5 0 5
BITMAP
10
30
48
48
84
ENDCHAR
STARTCHAR underscore
ENCODING 95
SWIDTH 523 0
DWIDTH 7 0
BBX 8 1 -1 -3
BITMAP
7F
ENDCHAR
STARTCHAR grave
ENCODING 96
SWIDTH 348 0
DWIDTH 4 0
BBX 2 3 0 6
BITMAP
40
80
C0
ENDCHAR
STARTCHAR a
ENCODING 97
SWIDTH 414 0
DWIDTH 5 0
BBX 6 5 0 0
BITMAP
70
90
10
F0
F8
ENDCHAR
STARTCHAR b
ENCODING 98
SWIDTH 491 0
DWIDTH 6 0
BBX 6 9 0 0
BITMAP
40
40
40
40
58
64
44
44
78
ENDCHAR
STARTCHAR c
ENCODING 99
SWIDTH 422 0
DWIDTH 5 0
BBX 5 5 0 0
BITMAP
78
80
80
80
78
ENDCHAR
STARTCHAR d
ENCODING 100
SWIDTH 513 0
DWIDTH 7 0
BBX 8 9 0 0
BITMAP
0C
04
04
04
7C
84
84
C4
7E
ENDCHAR
STARTCHAR e
ENCODING 101
SWIDTH 428 0
DWIDTH 6 0
BBX 5 5 0 0
BITMAP
70
F8
80
88
70
ENDCHAR
STARTCHAR f
ENCODING 102
SWIDTH 321 0
DWIDTH 4 0
BBX 7 10 -1 0
BITMAP
0C
10
20
20
20
78
20
20
20
20
ENDCHAR
STARTCHAR g
ENCODING 103
SWIDTH 483 0
DWIDTH 6 0
BBX 5 8 1 -3
BITMAP
68
90
90
60
F0
88
88
F0
ENDCHAR
STARTCHAR h
ENCODING 104
SWIDTH 526 0
DWIDTH 7 0
BBX 8 9 -1 0
BITMAP
20
20
20
20
2E
32
22
22
77
ENDCHAR
STARTCHAR i
ENCODING 105
SWIDTH 266 0
DWIDTH 3 0
BBX 4 8 0 0
BITMAP
40
00
00
C0
40
40
40
40
ENDCHAR
STARTCHAR j
ENCODING 106
SWIDTH 247 0
DWIDTH 3 0
BBX 4 11 -2 -3
BITMAP
10
00
30
10
10
10
10
10
10
10
60
ENDCHAR
STARTCHAR k
ENCODING 107
SWIDTH 518 0
DWIDTH 7 0
BBX 7 9 0 0
BITMAP
40
40
40
40
48
50
70
58
4C
ENDCHAR
STARTCHAR l
ENCODING 108
SWIDTH 262 0
DWIDTH 3 0
BBX 5 9 -1 0
BITMAP
60
20
20
20
20
20
20
20
20
ENDCHAR
STARTCHAR m
ENCODING 109
SWIDTH 812 0
DWIDTH 11 0
BBX 12 5 -1 0
BITMAP
6DC0
3240
2240
2240
3660
ENDCHAR
STARTCHAR n
ENCODING 110
SWIDTH 516 0
DWIDTH 7 0
BBX 7 5 0 0
BITMAP
DC
64
44
44
6C
ENDCHAR
STARTCHAR o
ENCODING 111
SWIDTH 503 0
DWIDTH 7 0
BBX 7 5 0 0
BITMAP
78
84
84
C4
78
ENDCHAR
STARTCHAR p
ENCODING 112
SWIDTH 503 0
DWIDTH 7 0
BBX 8 9 -1 -4
BITMAP
6C
32
22
22
3C
20
20
20
30
ENDCHAR
STARTCHAR q
ENCODING 113
SWIDTH 504 0
DWIDTH 7 0
BBX 7 9 0 -4
BITMAP
7C
84
84
84
7C
04
04
04
0C
ENDCHAR
STARTCHAR r
ENCODING 114
SWIDTH 350 0
DWIDTH 5 0
BBX 5 6 0 0
BITMAP
50
70
40
40
40
40
ENDCHAR
STARTCHAR s
ENCODING 115
SWIDTH 314 0
DWIDTH 4 0
BBX 4 5 0 0
BITMAP
F0
80
60
10
B0
ENDCHAR
STARTCHAR t
ENCODING 116
SWIDTH 319 0
DWIDTH 4 0
BBX 4 6 0 0
BITMAP
40
F0
40
40
40
60
ENDCHAR
STARTCHAR u
ENCODING 117
SWIDTH 534 0
DWIDTH 7 0
BBX 7 6 0 0
BITMAP
44
44
44
44
44
7E
ENDCHAR
STARTCHAR v
ENCODING 118
SWIDTH 498 0
DWIDTH 6 0
BBX 7 6 0 -1
BITMAP
44
48
28
30
10
10
ENDCHAR
STARTCHAR w
ENCODING 119
SWIDTH 753 0
DWIDTH 10 0
BBX 10 5 0 0
BITMAP
4C80
4480
3D00
3300
1200
ENDCHAR
STARTCHAR x
ENCODING 120
SWIDTH 522 0
DWIDTH 7 0
BBX 7 5 0 0
BITMAP
4C
30
10
68
4C
ENDCHAR
STARTCHAR y
ENCODING 121
SWIDTH 488 0
DWIDTH 6 0
BBX 7 9 0 -4
BITMAP
44
48
28
30
10
10
20
20
40
ENDCHAR
STARTCHAR z
ENCODING 122
SWIDTH 410 0
DWIDTH 5 0
BBX 6 5 0 0
BITMAP
78
90
20
40
F8
ENDCHAR
STARTCHAR braceleft
ENCODING 123
SWIDTH 501 0
DWIDTH 7 0
BBX 5 13 1 -3
BITMAP
10
20
20
20
20
20
40
40
20
20
20
20
10
ENDCHAR
STARTCHAR bar
ENCODING 124
SWIDTH 534 0
DWIDTH 7 0
BBX 2 12 3 0
BITMAP
80
80
80
80
80
80
80
80
80
80
80
80
ENDCHAR
STARTCHAR braceright
ENCODING 125
SWIDTH 501 0
DWIDTH 7 0
BBX 5 12 1 -3
BITMAP
40
20
20
20
20
10
20
20
20
20
20
40
ENDCHAR
STARTCHAR asciitilde
ENCODING 126
SWIDTH 567 0
DWIDTH 7 0
BBX 8 2 0 3
BITMAP
70
8C
ENDCHAR
STARTCHAR Adieresis
ENCODING 128
SWIDTH 711 0
DWIDTH 9 0
BBX 9 11 0 0
BITMAP
1400
1400
0000
0800
1400
2400
1C00
2600
2200
4200
4300
ENDCHAR
STARTCHAR Aring
ENCODING 129
SWIDTH 711 0
DWIDTH 9 0
BBX 11 12 -1 0
BITMAP
0400
0A00
0E00
0400
0400
0C00
1200
0E00
1100
2100
2080
2080
ENDCHAR
STARTCHAR Ccedilla
ENCODING 130
SWIDTH 762 0
DWIDTH 10 0
BBX 10 12 0 -4
BITMAP
1F80
2080
4000
4000
4000
4000
2080
1F00
0800
0400
0400
0C00
ENDCHAR
STARTCHAR Eacute
ENCODING 131
SWIDTH 619 0
DWIDTH 8 0
BBX 8 12 0 0
BITMAP
08
10
00
00
7E
20
20
3C
20
20
20
7E
ENDCHAR
STARTCHAR Ntilde
ENCODING 132
SWIDTH 834 0
DWIDTH 11 0
BBX 11 11 0 0
BITMAP
0C00
0600
0000
30C0
3080
2880
2480
2280
2280
2180
7080
ENDCHAR
STARTCHAR Odieresis
ENCODING 133
SWIDTH 827 0
DWIDTH 11 0
BBX 10 11 0 0
BITMAP
0A00
0A00
0000
1F00
2080
40C0
4040
4040
4040
2080
1F00
ENDCHAR
STARTCHAR Udieresis
ENCODING 134
SWIDTH 815 0
DWIDTH 11 0
BBX 11 11 0 0
BITMAP
0A00
0A00
0000
61C0
2080
2080
2080
2080
2080
3180
1E00
ENDCHAR
STARTCHAR aacute
ENCODING 135
SWIDTH 414 0
DWIDTH 5 0
BBX 6 8 0 0
BITMAP
30
20
00
70
90
10
F0
F8
ENDCHAR
STARTCHAR agrave
ENCODING 136
SWIDTH 414 0
DWIDTH 5 0
BBX 6 8 0 0
BITMAP
60
20
00
70
90
10
F0
F8
ENDCHAR
STARTCHAR acircumflex
ENCODING 137
SWIDTH 414 0
DWIDTH 5 0
BBX 5 8 0 0
BITMAP
60
50
00
70
90
10
F0
F8
ENDCHAR
STARTCHAR adieresis
ENCODING 138
SWIDTH 414 0
DWIDTH 5 0
BBX 5 7 0 0
BITMAP
50
00
70
90
10
F0
F8
ENDCHAR
STARTCHAR atilde
ENCODING 139
SWIDTH 414 0
DWIDTH 5 0
BBX 6 8 0 0
BITMAP
E8
30
00
70
90
10
F0
F8
ENDCHAR
STARTCHAR aring
ENCODING 140
SWIDTH 414 0
DWIDTH 5 0
BBX 6 9 0 0
BITMAP
70
50
70
00
70
90
10
F0
F8
ENDCHAR
STARTCHAR ccedilla
ENCODING 141
SWIDTH 422 0
DWIDTH 5 0
BBX 6 8 0 -3
BITMAP
78
80
80
80
78
20
10
30
ENDCHAR
STARTCHAR eacute
ENCODING 142
SWIDTH 424 0
DWIDTH 6 0
BBX 5 8 0 0
BITMAP
30
20
00
70
F8
80
88
70
ENDCHAR
STARTCHAR egrave
ENCODING 143
SWIDTH 424 0
DWIDTH 6 0
BBX 5 8 0 0
BITMAP
60
20
00
70
F8
80
88
70
ENDCHAR
STARTCHAR ecircumflex
ENCODING 144
SWIDTH 424 0
DWIDTH 6 0
BBX 5 8 0 0
BITMAP
20
50
00
70
F8
80
88
70
ENDCHAR
STARTCHAR edieresis
ENCODING 145
SWIDTH 424 0
DWIDTH 6 0
BBX 5 7 0 0
BITMAP
50
00
70
F8
80
88
70
ENDCHAR
STARTCHAR iacute
ENCODING 146
SWIDTH 262 0
DWIDTH 3 0
BBX 5 8 -1 0
BITMAP
30
20
00
60
20
20
20
20
ENDCHAR
STARTCHAR igrave
ENCODING 147
SWIDTH 262 0
DWIDTH 3 0
BBX 5 8 -1 0
BITMAP
40
20
00
60
20
20
20
20
ENDCHAR
STARTCHAR icircumflex
ENCODING 148
SWIDTH 262 0
DWIDTH 3 0
BBX 5 8 -1 0
BITMAP
70
10
20
20
20
20
20
20
ENDCHAR
STARTCHAR idieresis
ENCODING 149
SWIDTH 262 0
DWIDTH 3 0
BBX 4 8 -1 0
BITMAP
50
50
00
20
20
20
20
20
ENDCHAR
STARTCHAR ntilde
ENCODING 150
SWIDTH 516 0
DWIDTH 7 0
BBX 7 8 0 0
BITMAP
74
1C
00
DC
64
44
44
4C
ENDCHAR
STARTCHAR oacute
ENCODING 151
SWIDTH 495 0
DWIDTH 6 0
BBX 7 8 0 0
BITMAP
18
10
00
78
84
84
C4
78
ENDCHAR
STARTCHAR ograve
ENCODING 152
SWIDTH 495 0
DWIDTH 6 0
BBX 7 8 0 0
BITMAP
30
10
00
78
84
84
C4
78
ENDCHAR
STARTCHAR ocircumflex
ENCODING 153
SWIDTH 495 0
DWIDTH 6 0
BBX 7 8 0 0
BITMAP
30
10
08
78
84
84
C4
78
ENDCHAR
STARTCHAR odieresis
ENCODING 154
SWIDTH 495 0
DWIDTH 6 0
BBX 7 7 0 0
BITMAP
28
00
38
44
44
44
38
ENDCHAR
STARTCHAR otilde
ENCODING 155
SWIDTH 495 0
DWIDTH 6 0
BBX 7 8 0 0
BITMAP
60
18
00
78
84
84
C4
78
ENDCHAR
STARTCHAR uacute
ENCODING 156
SWIDTH 534 0
DWIDTH 7 0
BBX 7 8 0 0
BITMAP
08
10
00
44
44
44
44
7E
ENDCHAR
STARTCHAR ugrave
ENCODING 157
SWIDTH 534 0
DWIDTH 7 0
BBX 7 8 0 0
BITMAP
30
10
00
44
44
44
44
7E
ENDCHAR
STARTCHAR ucircumflex
ENCODING 158
SWIDTH 534 0
DWIDTH 7 0
BBX 7 8 0 0
BITMAP
30
48
44
44
44
44
44
7E
ENDCHAR
STARTCHAR udieresis
ENCODING 159
SWIDTH 534 0
DWIDTH 7 0
BBX 7 7 0 0
BITMAP
28
00
44
44
44
44
7E
ENDCHAR
STARTCHAR dagger
ENCODING 160
SWIDTH 523 0
DWIDTH 7 0
BBX 7 12 0 -3
BITMAP
10
10
10
7E
10
10
10
10
10
10
10
10
ENDCHAR
STARTCHAR degree
ENCODING 161
SWIDTH 415 0
DWIDTH 5 0
BBX 5 5 0 4
BITMAP
70
88
88
88
70
ENDCHAR
STARTCHAR cent
ENCODING 162
SWIDTH 447 0
DWIDTH 6 0
BBX 6 8 0 -1
BITMAP
04
08
3C
40
50
64
38
40
ENDCHAR
STARTCHAR sterling
ENCODING 163
SWIDTH 796 0
DWIDTH 10 0
BBX 10 13 0 -4
BITMAP
01C0
0240
0400
0400
0800
0800
1000
7C00
1040
3840
6440
4640
4380
ENDCHAR
STARTCHAR section
ENCODING 164
SWIDTH 491 0
DWIDTH 6 0
BBX 6 12 0 -3
BITMAP
38
48
C0
A0
A0
50
48
28
18
18
48
70
ENDCHAR
STARTCHAR bullet
ENCODING 165
SWIDTH 371 0
DWIDTH 5 0
BBX 5 5 0 2
BITMAP
60
70
70
70
60
ENDCHAR
STARTCHAR paragraph
ENCODING 166
SWIDTH 469 0
DWIDTH 6 0
BBX 8 12 -1 -4
BITMAP
3F
7A
7A
7A
3A
0A
0A
0A
0A
0A
0A
0A
ENDCHAR
STARTCHAR germandbls
ENCODING 167
SWIDTH 545 0
DWIDTH 7 0
BBX 7 10 0 0
BITMAP
38
6C
44
44
58
4C
44
44
44
F8
ENDCHAR
STARTCHAR registered
ENCODING 168
SWIDTH 796 0
DWIDTH 10 0
BBX 10 10 0 0
BITMAP
1E00
6180
7E80
9240
9240
9C40
9440
5280
7B80
1E00
ENDCHAR
STARTCHAR copyright
ENCODING 169
SWIDTH 796 0
DWIDTH 10 0
BBX 10 9 0 0
BITMAP
1E00
6F80
5280
A040
A040
A040
B080
5E80
3F00
ENDCHAR
STARTCHAR trademark
ENCODING 170
SWIDTH 1025 0
DWIDTH 13 0
BBX 13 6 0 3
BITMAP
FF18
2B30
23B0
22D0
22D0
7738
ENDCHAR
STARTCHAR acute
ENCODING 171
SWIDTH 349 0
DWIDTH 5 0
BBX 3 2 1 6
BITMAP
40
40
ENDCHAR
STARTCHAR dieresis
ENCODING 172
SWIDTH 348 0
DWIDTH 5 0
BBX 4 2 0 6
BITMAP
90
90
ENDCHAR
STARTCHAR AE
ENCODING 174
SWIDTH 915 0
DWIDTH 12 0
BBX 13 8 -1 0
BITMAP
07F0
0500
0900
09E0
1F00
1100
2100
63F0
ENDCHAR
STARTCHAR Oslash
ENCODING 175
SWIDTH 851 0
DWIDTH 11 0
BBX 11 10 0 -1
BITMAP
1F00
3180
6140
4240
4440
4840
5040
2080
5B00
0400
ENDCHAR
STARTCHAR plusminus
ENCODING 177
SWIDTH 698 0
DWIDTH 9 0
BBX 9 10 0 0
BITMAP
0800
0800
0800
0800
7F00
0800
0800
0800
0000
7F00
ENDCHAR
STARTCHAR yen
ENCODING 180
SWIDTH 523 0
DWIDTH 7 0
BBX 7 9 0 0
BITMAP
EE
44
FE
28
FE
10
10
10
10
ENDCHAR
STARTCHAR mu
ENCODING 181
SWIDTH 524 0
DWIDTH 7 0
BBX 7 11 0 -4
BITMAP
88
88
88
88
88
88
FC
80
80
80
80
ENDCHAR
STARTCHAR ordfeminine
ENCODING 187
SWIDTH 272 0
DWIDTH 4 0
BBX 4 4 0 4
BITMAP
E0
20
E0
40
ENDCHAR
STARTCHAR ordmasculine
ENCODING 188
SWIDTH 360 0
DWIDTH 5 0
BBX 4 4 0 4
BITMAP
E0
90
90
60
ENDCHAR
STARTCHAR ae
ENCODING 190
SWIDTH 654 0
DWIDTH 9 0
BBX 8 5 0 0
BITMAP
3E
5F
10
71
6E
ENDCHAR
STARTCHAR oslash
ENCODING 191
SWIDTH 545 0
DWIDTH 7 0
BBX 7 5 0 0
BITMAP
3C
4C
54
64
38
ENDCHAR
STARTCHAR questiondown
ENCODING 192
SWIDTH 371 0
DWIDTH 5 0
BBX 4 8 0 -3
BITMAP
20
00
00
20
C0
80
80
70
ENDCHAR
STARTCHAR exclamdown
ENCODING 193
SWIDTH 272 0
DWIDTH 4 0
BBX 2 9 1 -4
BITMAP
80
00
80
80
80
80
80
80
80
ENDCHAR
STARTCHAR logicalnot
ENCODING 194
SWIDTH 698 0
DWIDTH 9 0
BBX 8 5 0 2
BITMAP
7F
01
01
01
01
ENDCHAR
STARTCHAR florin
ENCODING 196
SWIDTH 523 0
DWIDTH 7 0
BBX 8 13 -1 -3
BITMAP
03
05
04
04
1E
0C
08
08
18
10
10
10
60
ENDCHAR
STARTCHAR guillemotleft
ENCODING 199
SWIDTH 371 0
DWIDTH 5 0
BBX 5 5 0 0
BITMAP
20
50
E0
50
20
ENDCHAR
STARTCHAR guillemotright
ENCODING 200
SWIDTH 371 0
DWIDTH 5 0
BBX 5 5 0 0
BITMAP
20
50
70
50
20
ENDCHAR
STARTCHAR ellipsis
ENCODING 201
SWIDTH 1056 0
DWIDTH 14 0
BBX 11 1 1 0
BITMAP
4420
ENDCHAR
STARTCHAR Agrave
ENCODING 203
SWIDTH 711 0
DWIDTH 9 0
BBX 10 12 0 0
BITMAP
1800
0800
0800
0800
0800
1400
1400
1C00
2200
2200
4300
4300
ENDCHAR
STARTCHAR Atilde
ENCODING 204
SWIDTH 711 0
DWIDTH 9 0
BBX 10 11 0 0
BITMAP
1A00
2C00
2C00
0800
1400
1400
1C00
2200
2200
4300
4300
ENDCHAR
STARTCHAR Otilde
ENCODING 205
SWIDTH 827 0
DWIDTH 11 0
BBX 10 11 0 0
BITMAP
0D00
1600
0000
1F00
2080
40C0
4040
4040
4040
2080
1F00
ENDCHAR
STARTCHAR OE
ENCODING 206
SWIDTH 1036 0
DWIDTH 13 0
BBX 13 8 0 0
BITMAP
1FF0
2100
4110
41F0
4110
4100
2108
1FF8
ENDCHAR
STARTCHAR oe
ENCODING 207
SWIDTH 775 0
DWIDTH 10 0
BBX 10 5 0 0
BITMAP
3F80
47C0
4400
4440
3B80
ENDCHAR
STARTCHAR endash
ENCODING 208
SWIDTH 609 0
DWIDTH 8 0
BBX 8 1 0 3
BITMAP
FE
ENDCHAR
STARTCHAR emdash
ENCODING 209
SWIDTH 855 0
DWIDTH 11 0
BBX 9 1 1 3
BITMAP
FF80
ENDCHAR
STARTCHAR quotedblleft
ENCODING 210
SWIDTH 502 0
DWIDTH 7 0
BBX 5 3 1 6
BITMAP
40
90
90
ENDCHAR
STARTCHAR quotedblright
ENCODING 211
SWIDTH 501 0
DWIDTH 7 0
BBX 5 3 1 6
BITMAP
90
90
90
ENDCHAR
STARTCHAR quoteleft
ENCODING 212
SWIDTH 272 0
DWIDTH 4 0
BBX 2 3 0 6
BITMAP
40
80
C0
ENDCHAR
STARTCHAR quoteright
ENCODING 213
SWIDTH 272 0
DWIDTH 4 0
BBX 2 3 1 6
BITMAP
80
80
80
ENDCHAR
STARTCHAR divide
ENCODING 214
SWIDTH 699 0
DWIDTH 9 0
BBX 9 7 0 1
BITMAP
0800
0000
0000
7F00
0000
0000
0800
ENDCHAR
STARTCHAR ydieresis
ENCODING 216
SWIDTH 488 0
DWIDTH 6 0
BBX 7 12 0 -4
BITMAP
48
48
00
4C
48
48
30
30
30
20
20
40
ENDCHAR
STARTCHAR Ydieresis
ENCODING 217
SWIDTH 728 0
DWIDTH 9 0
BBX 9 11 0 0
BITMAP
1400
1400
0000
6300
2200
3400
1400
0800
0800
0800
1C00
ENDCHAR
STARTCHAR fraction
ENCODING 218
SWIDTH 242 0
DWIDTH 3 0
BBX 6 11 -1 -3
BITMAP
08
10
10
10
20
20
20
40
40
80
80
ENDCHAR
STARTCHAR guilsinglleft
ENCODING 220
SWIDTH 880 0
DWIDTH 11 0
BBX 13 9 -1 0
BITMAP
06E0
1B00
2200
2200
7FE0
2220
2220
2220
3220
ENDCHAR
STARTCHAR guilsinglright
ENCODING 221
SWIDTH 860 0
DWIDTH 11 0
BBX 12 9 0 0
BITMAP
05C0
3E40
2440
2440
7FC0
2440
2440
2440
2440
ENDCHAR
STARTCHAR fi
ENCODING 222
SWIDTH 555 0
DWIDTH 7 0
BBX 7 10 0 0
BITMAP
1C
24
40
40
40
FC
44
44
44
44
ENDCHAR
STARTCHAR fl
ENCODING 223
SWIDTH 539 0
DWIDTH 7 0
BBX 8 9 0 0
BITMAP
1C
24
44
44
FC
44
44
44
44
ENDCHAR
STARTCHAR daggerdbl
ENCODING 224
SWIDTH 627 0
DWIDTH 8 0
BBX 11 10 -1 0
BITMAP
00C0
1FE0
3300
2200
2200
7F80
2200
2200
2200
6300
ENDCHAR
STARTCHAR periodcentered
ENCODING 225
SWIDTH 257 0
DWIDTH 3 0
BBX 2 1 1 3
BITMAP
80
ENDCHAR
STARTCHAR quotesinglbase
ENCODING 226
SWIDTH 257 0
DWIDTH 3 0
BBX 2 2 0 -1
BITMAP
40
40
ENDCHAR
STARTCHAR quotedblbase
ENCODING 227
SWIDTH 473 0
DWIDTH 6 0
BBX 4 2 1 -1
BITMAP
90
90
ENDCHAR
STARTCHAR perthousand
ENCODING 228
SWIDTH 1047 0
DWIDTH 14 0
BBX 12 9 1 -1
BITMAP
6200
9400
9800
6800
1660
1990
2990
2990
4660
ENDCHAR
STARTCHAR Acircumflex
ENCODING 229
SWIDTH 711 0
DWIDTH 9 0
BBX 10 10 0 0
BITMAP
0C00
1400
0800
1400
1400
1C00
2200
2200
4300
4300
ENDCHAR
STARTCHAR Ecircumflex
ENCODING 230
SWIDTH 619 0
DWIDTH 8 0
BBX 8 11 0 0
BITMAP
18
08
04
7E
20
20
3C
20
20
20
7E
ENDCHAR
STARTCHAR Aacute
ENCODING 231
SWIDTH 711 0
DWIDTH 9 0
BBX 10 12 0 0
BITMAP
0C00
0800
0800
0000
0800
1400
1400
1C00
2200
2200
4300
4300
ENDCHAR
STARTCHAR Edieresis
ENCODING 232
SWIDTH 619 0
DWIDTH 8 0
BBX 7 10 0 0
BITMAP
28
00
7C
20
24
3C
24
20
22
7E
ENDCHAR
STARTCHAR Egrave
ENCODING 233
SWIDTH 619 0
DWIDTH 8 0
BBX 8 12 0 0
BITMAP
10
10
08
00
7E
20
20
3C
20
20
20
7E
ENDCHAR
STARTCHAR Iacute
ENCODING 234
SWIDTH 363 0
DWIDTH 5 0
BBX 5 12 0 0
BITMAP
30
20
00
00
30
20
20
20
20
20
20
70
ENDCHAR
STARTCHAR Icircumflex
ENCODING 235
SWIDTH 362 0
DWIDTH 5 0
BBX 5 11 0 0
BITMAP
20
50
00
30
20
20
20
20
20
20
70
ENDCHAR
STARTCHAR Idieresis
ENCODING 236
SWIDTH 363 0
DWIDTH 5 0
BBX 4 11 0 0
BITMAP
90
90
00
70
20
20
20
20
20
20
60
ENDCHAR
STARTCHAR Igrave
ENCODING 237
SWIDTH 363 0
DWIDTH 5 0
BBX 5 12 0 0
BITMAP
60
20
20
00
30
20
20
20
20
20
20
70
ENDCHAR
STARTCHAR Oacute
ENCODING 238
SWIDTH 827 0
DWIDTH 11 0
BBX 10 12 0 0
BITMAP
0200
0400
0000
0000
1F00
2080
40C0
4040
4040
4040
2080
1F00
ENDCHAR
STARTCHAR Ocircumflex
ENCODING 239
SWIDTH 827 0
DWIDTH 11 0
BBX 10 11 0 0
BITMAP
0400
0A00
0100
1F00
2080
40C0
4040
4040
4040
2080
1F00
ENDCHAR
STARTCHAR Ograve
ENCODING 241
SWIDTH 827 0
DWIDTH 11 0
BBX 10 12 0 0
BITMAP
0C00
0400
0400
0000
1F00
2080
40C0
4040
4040
4040
2080
1F00
ENDCHAR
STARTCHAR Uacute
ENCODING 242
SWIDTH 815 0
DWIDTH 11 0
BBX 11 12 0 0
BITMAP
0600
0400
0000
0000
60C0
2080
2080
2080
2080
2080
3180
1E00
ENDCHAR
STARTCHAR Ucircumflex
ENCODING 243
SWIDTH 815 0
DWIDTH 11 0
BBX 11 11 0 0
BITMAP
0400
0A00
0000
60C0
2080
2080
2080
2080
2080
3180
1E00
ENDCHAR
STARTCHAR Ugrave
ENCODING 244
SWIDTH 815 0
DWIDTH 11 0
BBX 11 12 0 0
BITMAP
0C00
0400
0400
0000
60C0
2080
2080
2080
2080
2080
3180
1E00
ENDCHAR
STARTCHAR dotlessi
ENCODING 245
SWIDTH 272 0
DWIDTH 4 0
BBX 5 6 -1 0
BITMAP
20
20
20
20
20
20
ENDCHAR
STARTCHAR circumflex
ENCODING 246
SWIDTH 349 0
DWIDTH 5 0
BBX 5 2 0 6
BITMAP
60
10
ENDCHAR
STARTCHAR tilde
ENCODING 247
SWIDTH 349 0
DWIDTH 5 0
BBX 5 2 0 6
BITMAP
60
B0
ENDCHAR
STARTCHAR macron
ENCODING 248
SWIDTH 349 0
DWIDTH 5 0
BBX 5 1 0 6
BITMAP
F0
ENDCHAR
STARTCHAR breve
ENCODING 249
SWIDTH 349 0
DWIDTH 5 0
BBX 5 2 0 6
BITMAP
80
70
ENDCHAR
STARTCHAR dotaccent
ENCODING 250
SWIDTH 349 0
DWIDTH 5 0
BBX 2 2 1 6
BITMAP
40
40
ENDCHAR
STARTCHAR ring
ENCODING 251
SWIDTH 349 0
DWIDTH 5 0
BBX 3 3 1 6
BITMAP
E0
A0
E0
ENDCHAR
STARTCHAR cedilla
ENCODING 252
SWIDTH 349 0
DWIDTH 5 0
BBX 3 3 0 -3
BITMAP
60
20
60
ENDCHAR
STARTCHAR hungarumlaut
ENCODING 253
SWIDTH 349 0
DWIDTH 5 0
BBX 5 1 0 7
BITMAP
50
ENDCHAR
STARTCHAR ogonek
ENCODING 254
SWIDTH 349 0
DWIDTH 5 0
BBX 4 4 1 -3
BITMAP
80
80
80
E0
ENDCHAR
STARTCHAR caron
ENCODING 255
SWIDTH 349 0
DWIDTH 5 0
BBX 5 2 0 6
BITMAP
10
60
ENDCHAR
ENDFONT
